<?xml version="1.0" encoding="utf-8"?>
<!-- Generator: Adobe Illustrator 22.0.0, SVG Export Plug-In . SVG Version: 6.00 Build 0)  -->
<svg version="1.1" id="Calque_1" xmlns="http://www.w3.org/2000/svg" xmlns:xlink="http://www.w3.org/1999/xlink" x="0px" y="0px"
	 viewBox="0 0 250 100" style="enable-background:new 0 0 250 100;" xml:space="preserve">
<style type="text/css">
	.st0{fill:#FDBC11;}
	.st1{fill:#FDBC12;}
	.st2{fill:#FDE39E;}
	.st3{fill:#FEE8AF;}
	.st4{fill:#17468F;}
	.st5{font-family:'NeoSansStd-Bold';}
	.st6{font-size:43.7422px;}
	.st7{font-size:14.7784px;}
</style>
<g>
	<g>
		<path class="st0" d="M243.5,49.1c-1.9-1.1-4-1.5-6.1-1.6c-0.4,0-0.5-0.2-0.5-0.5c0-0.6-0.1-1.2-0.2-1.8c-0.1-0.5,0-0.7,0.5-0.8
			c2-0.7,3.8-1.7,5.4-3.2c0.2-0.2,0.3-0.3,0.2-0.6c-0.1-0.8-0.4-1.6-0.6-2.4c-0.1-0.2-0.2-0.4-0.4-0.4c-0.7-0.2-1.5-0.3-2.2-0.4
			c-1.5-0.1-2.9,0-4.3,0.3c-0.3,0.1-0.4,0-0.5-0.3c-0.2-0.5-0.4-1.1-0.7-1.6c-0.3-0.5-0.2-0.8,0.3-1.1c1.7-1.1,3.2-2.6,4.3-4.3
			c0.2-0.2,0.2-0.4,0.1-0.7c-0.3-0.7-0.7-1.4-1.2-2.1c-0.2-0.3-0.4-0.4-0.7-0.4c-2.1,0.1-4.2,0.6-6.1,1.6c-0.3,0.2-0.5,0.2-0.7-0.2
			c-0.4-0.6-0.8-1.1-1.2-1.6c-0.2-0.3-0.2-0.4,0-0.7c1.5-1.6,2.5-3.4,3.2-5.5c0.1-0.3,0-0.5-0.2-0.7c-0.5-0.6-1.1-1.2-1.7-1.7
			c-0.2-0.2-0.4-0.2-0.6-0.1c-2.1,0.6-4,1.7-5.6,3.2c-0.3,0.2-0.4,0.2-0.6,0c-0.5-0.4-1-0.9-1.6-1.2c-0.4-0.3-0.4-0.5-0.2-0.9
			c1-1.8,1.4-3.8,1.6-5.9c0-0.4-0.1-0.7-0.4-0.9c-0.7-0.4-1.3-0.8-2-1.2c-0.2-0.1-0.4-0.2-0.7,0c-0.6,0.4-1.2,0.8-1.8,1.3
			c-1.1,1-2,2-2.8,3.3c-0.1,0.2-0.2,0.3-0.5,0.2c-0.7-0.3-1.5-0.6-2.2-0.9c-0.3-0.1-0.3-0.2-0.3-0.5c0.4-1.7,0.6-3.4,0.2-5.1
			c-0.4-2.1,0-1.7-2.1-2.3c-1.3-0.4-1.4-0.3-2.3,0.8c-1.2,1.4-2,3-2.6,4.8c-0.1,0.2-0.1,0.4-0.3,0.4c-0.7-0.1-1.5-0.2-2.2-0.3
			c-0.5,0-0.5-0.3-0.5-0.7c0-2.1-0.6-4.1-1.6-5.9c-0.2-0.3-0.4-0.4-0.7-0.4c-0.7,0-1.5,0-2.2,0c-0.3,0-0.5,0.1-0.7,0.4
			c-0.6,1.1-1.1,2.3-1.3,3.5c-0.2,0.9-0.3,1.8-0.4,2.7c0,0.2-0.1,0.3-0.3,0.3c-0.7,0.1-1.5,0.1-2.2,0.3c-0.4,0.1-0.5-0.1-0.6-0.4
			c-0.7-2-1.7-3.9-3.2-5.4c-0.3-0.3-0.5-0.3-0.8-0.2c-0.7,0.2-1.3,0.3-2,0.5C186.2,8,186,8.2,186,8.5c-0.5,2.1-0.5,4.2,0,6.3
			c0.1,0.3,0,0.5-0.3,0.6c-0.6,0.3-1.3,0.5-1.9,0.8c-0.4,0.2-0.5,0.1-0.7-0.2c-1.1-1.8-2.6-3.3-4.4-4.4c-0.3-0.2-0.5-0.2-0.8-0.1
			c-0.6,0.3-1.3,0.7-1.9,1c-0.4,0.3-0.6,0.6-0.5,1.1c0.2,2.1,0.7,4.1,1.7,5.9c0.1,0.2,0.1,0.4-0.1,0.5c-0.5,0.4-1.1,0.8-1.6,1.2
			c-0.2,0.2-0.4,0.2-0.6,0c-1.6-1.5-3.4-2.6-5.5-3.2c-0.3-0.1-0.5-0.1-0.7,0.1c-0.6,0.5-1.1,1.1-1.7,1.6c-0.2,0.3-0.3,0.5-0.2,0.8
			c0.6,2.1,1.6,3.8,3.1,5.4c0.2,0.3,0.3,0.4,0.1,0.7c-0.5,0.5-0.9,1.1-1.3,1.7c-0.2,0.3-0.3,0.3-0.6,0.1c-1.7-1-3.6-1.4-5.6-1.7
			c-0.7-0.1-1.2,0.1-1.5,0.7c-0.3,0.6-0.6,1.1-0.9,1.7c-0.2,0.3-0.1,0.5,0,0.7c1.1,1.8,2.6,3.3,4.4,4.5c0.3,0.2,0.4,0.4,0.2,0.7
			c-0.3,0.5-0.5,1.1-0.7,1.6c-0.2,0.4-0.4,0.5-0.8,0.4c-2.1-0.4-4.1-0.4-6.2,0.1c-0.3,0.1-0.5,0.2-0.6,0.6c-0.2,0.7-0.4,1.4-0.6,2.2
			c-0.1,0.4,0,0.6,0.3,0.8c1.6,1.5,3.4,2.5,5.4,3.2c0.2,0.1,0.4,0,0.4,0.3c-0.1,0.8-0.2,1.6-0.3,2.4c0,0.2-0.1,0.3-0.3,0.3
			c-0.6,0-1.2,0.1-1.9,0.2c-1.5,0.2-2.9,0.7-4.2,1.3c-0.4,0.2-0.7,0.5-0.6,1c0,0.5,0,1,0,1.5c0,1.2,0,1.2,1.1,1.6c0,0,0.1,0,0.1,0
			c1.7,0.8,3.5,1.1,5.3,1.2c0.5,0,0.6,0.3,0.6,0.6c0.1,0.6,0.1,1.2,0.2,1.7c0.1,0.5,0,0.7-0.5,0.8c-2,0.7-3.8,1.7-5.4,3.2
			c-0.2,0.2-0.3,0.3-0.2,0.6c0.2,0.8,0.4,1.6,0.6,2.3c0.1,0.2,0.2,0.4,0.5,0.5c0.6,0.1,1.2,0.3,1.8,0.3c1.6,0.1,3.2,0.1,4.8-0.3
			c0.3-0.1,0.4,0,0.4,0.2c0.2,0.5,0.4,1.1,0.7,1.6c0.3,0.5,0.2,0.8-0.3,1.2c-1.7,1.1-3.1,2.5-4.2,4.2c-0.2,0.3-0.2,0.6,0,0.9
			c0.3,0.6,0.7,1.2,1,1.8c0.2,0.4,0.6,0.6,1.1,0.6c0.5-0.1,0.9-0.1,1.4-0.1c1.6-0.2,3.1-0.8,4.6-1.5c0.3-0.1,0.4-0.1,0.6,0.1
			c0.4,0.6,0.9,1.2,1.3,1.8c0.2,0.2,0.2,0.3,0,0.6c-1.5,1.6-2.6,3.4-3.2,5.5c-0.1,0.3,0,0.6,0.2,0.8c0.5,0.6,1,1.1,1.6,1.6
			c0.2,0.2,0.5,0.2,0.7,0.2c2.1-0.6,3.9-1.7,5.5-3.1c0.3-0.2,0.4-0.3,0.7-0.1c0.5,0.4,1.1,0.9,1.7,1.3c0.3,0.2,0.3,0.4,0.1,0.7
			c-0.9,1.7-1.4,3.5-1.6,5.4c-0.1,0.7,0,1.4,0.8,1.7c0.4,0.1,0.7,0.3,1,0.6c0.7,0.5,1.2,0.4,1.8-0.1c1.6-1.1,2.9-2.5,4-4.1
			c0.1-0.2,0.2-0.5,0.5-0.3c0.7,0.3,1.4,0.6,2,0.8c0.2,0.1,0.3,0.2,0.2,0.5c-0.3,1-0.4,2.1-0.4,3.2c-0.1,0.8,0,1.6,0.2,2.4
			c0.1,0.4,0,1,0.6,1.3c0.8,0.3,1.6,0.5,2.4,0.7c0.2,0,0.4,0,0.5-0.2c0.2-0.3,0.5-0.5,0.7-0.8c1.2-1.4,2-3,2.6-4.8
			c0.1-0.2,0.2-0.4,0.4-0.3c0.8,0.2,1.5,0.2,2.3,0.3c0.2,0,0.4,0,0.4,0.3c0,0.3,0.1,0.6,0.1,0.9c0.2,1.9,0.7,3.7,1.6,5.4
			c0.2,0.3,0.4,0.4,0.7,0.4c0.7,0,1.4,0,2.2,0c0.3,0,0.6-0.1,0.7-0.5c1-1.9,1.6-3.9,1.7-6.1c0-0.4,0.1-0.5,0.5-0.5
			c0.5,0,1.1,0,1.6-0.2c0.6-0.2,0.8,0.1,0.9,0.6c0.6,1.9,1.6,3.6,3,5.1c0.4,0.4,0.7,0.4,1.1,0.3c0.6-0.2,1.3-0.4,1.9-0.5
			c0.3-0.1,0.5-0.3,0.6-0.6c0.6-2.1,0.6-4.2,0-6.4c-0.1-0.3,0-0.5,0.3-0.6c0.6-0.2,1.2-0.4,1.7-0.7c0.5-0.3,0.7-0.1,0.9,0.3
			c1.1,1.7,2.6,3.2,4.3,4.3c0.3,0.2,0.5,0.3,0.8,0.1c0.7-0.4,1.4-0.7,2-1.2c0.3-0.2,0.3-0.4,0.3-0.7c0-2.2-0.6-4.2-1.6-6.1
			c-0.1-0.3-0.2-0.4,0.1-0.7c0.5-0.4,1-0.8,1.5-1.2c0.3-0.2,0.4-0.2,0.7,0c1.6,1.5,3.4,2.6,5.6,3.2c0.2,0.1,0.4,0.1,0.6-0.1
			c0.6-0.5,1.2-1.1,1.7-1.7c0.2-0.3,0.2-0.5,0.1-0.8c-0.6-2.1-1.7-3.9-3.1-5.5c-0.2-0.2-0.3-0.4,0-0.7c0.4-0.6,0.9-1.1,1.3-1.7
			c0.2-0.2,0.3-0.3,0.5-0.1c1.6,0.8,3.3,1.4,5.1,1.6c1.8,0.1,1.5,0.3,2.3-1.1c1-1.8,1.1-1.3-0.2-3.2c-0.9-1.3-2.2-2.4-3.5-3.2
			c-0.3-0.2-0.4-0.4-0.2-0.8c0.3-0.6,0.5-1.1,0.7-1.7c0.1-0.3,0.3-0.5,0.7-0.4c1.6,0.4,3.2,0.5,4.7,0.2c2.4-0.5,1.8,0.1,2.6-2.2
			c0.3-1,0-1.6-0.7-2.1c-1.4-1.2-3-2-4.8-2.6c-0.3-0.1-0.5-0.2-0.4-0.5c0.1-0.7,0.2-1.4,0.3-2.1c0-0.3,0.2-0.4,0.5-0.4
			c2.2-0.1,4.2-0.6,6.2-1.7c0.3-0.2,0.5-0.4,0.5-0.7c0-0.7,0-1.5,0-2.2C244,49.5,243.8,49.3,243.5,49.1z M176.5,24.1
			c0-0.5,0.2-0.8,0.5-1c4.8-3.8,10.1-6.3,16.1-7.3c2.6-0.4,5.1-0.6,7.7-0.5c4.3,0.2,8.4,1.2,12.3,2.9c2.8,1.2,5.4,2.8,7.9,4.7
			c0.2,0.1,0.4,0.3,0.5,0.5c0.4,0.5,0.5,0.9,0,1.4c-1,1.1-2,2.3-3,3.4c-0.1,0.1-0.2,0.2-0.3,0.4c-0.7,0.9-1.1,0.9-2.1,0.2
			c-2.7-2-5.7-3.6-8.9-4.6c-2.8-0.9-5.8-1.3-8.7-1.2c-6,0.2-11.5,2.1-16.3,5.8c-0.9,0.7-1.4,0.7-2.2-0.2c-1.1-1.2-2.2-2.4-3.2-3.6
			C176.7,24.7,176.5,24.4,176.5,24.1z M223.4,58.9c0,0.1-0.1,0.2-0.1,0.4c-0.3,0.8-0.8,1-1.5,0.5c-1.3-0.9-2.7-1.8-4-2.7
			c-2.4-1.6-4.8-3.3-7.2-4.9c-0.2-0.1-0.4-0.2-0.5-0.4c-0.7-0.5-0.7-1.3-0.1-1.8c0.9-0.7,1.8-1.3,2.8-2c2.9-1.9,5.7-3.9,8.6-5.8
			c0.1-0.1,0.2-0.1,0.3-0.2c1-0.6,1.4-0.5,1.7,0.6c0.8,2.7,1.3,5.4,1.2,8.3C224.7,53.6,224.1,56.2,223.4,58.9z M202.7,74.3
			c0.1-1.8,0.3-3.5,0.4-5.3c0.1-1.5,0.2-3.1,0.3-4.6c0.1-1.3,0.2-2.6,0.3-3.8c0.1-0.8,0.8-1.2,1.5-1c0.7,0.2,1.4,0.6,2.1,0.9
			c3.5,1.7,7,3.4,10.5,5.1c0,0,0,0,0,0c1.1,0.5,1.4,1,0.4,2c-3.9,4.1-8.7,6.8-14.2,8.1c-0.1,0-0.3,0-0.4,0c-0.6,0.1-0.9-0.1-0.9-0.7
			C202.8,74.8,202.8,74.5,202.7,74.3C202.8,74.3,202.8,74.3,202.7,74.3z M195.7,27.2c-0.1,1.7-0.3,3.4-0.4,5.2c-0.1,1-0.1,2-0.2,3
			c-0.1,1.7-0.2,3.4-0.4,5.2c0,0.2,0,0.4,0,0.7c-0.1,1-0.9,1.4-1.8,0.9c-1.1-0.5-2.2-1.1-3.3-1.6c-3-1.5-6.1-2.9-9.1-4.4
			c-0.1-0.1-0.3-0.1-0.4-0.2c-0.7-0.4-0.8-0.8-0.3-1.4c0.7-0.8,1.4-1.5,2.2-2.2c3.5-3.2,7.6-5.2,12.3-6.3c0.2-0.1,0.4-0.1,0.7-0.1
			c0.6,0,0.8,0.2,0.8,0.8C195.7,26.8,195.7,27,195.7,27.2C195.7,27.2,195.7,27.2,195.7,27.2z M180.4,44.4c2.6,1.8,5.2,3.5,7.8,5.3
			c1.1,0.7,1.1,1.6,0.1,2.3c-3.8,2.6-7.6,5.2-11.4,7.8c-0.1,0.1-0.2,0.1-0.3,0.2c-0.6,0.3-1,0.2-1.2-0.5c-0.5-1.4-0.7-2.8-1-4.2
			c-0.3-1.4-0.3-2.9-0.4-4c0-3.3,0.5-6.1,1.3-8.8c0-0.1,0.1-0.2,0.1-0.3c0.3-0.6,0.7-0.8,1.3-0.4C177.9,42.7,179.2,43.5,180.4,44.4z
			 M180.5,65.9c2.7-1.3,5.4-2.6,8.1-3.9c1.4-0.7,2.9-1.4,4.3-2.1c1.3-0.6,2,0.1,2.1,1.2c0.1,2.3,0.3,4.5,0.5,6.8
			c0.1,2.2,0.4,4.4,0.5,6.6c0.1,1.2,0,1.8-1.7,1.4c-4.3-1.1-8.2-3-11.6-5.9c-0.9-0.7-1.7-1.5-2.5-2.4
			C179.4,66.8,179.5,66.3,180.5,65.9z M190.4,50.9c0-4.7,3.8-9,9-8.9c4.5,0.1,8.6,3.6,8.7,8.9c0,5-4.1,8.8-8.8,8.8
			C194.2,59.7,190.3,55.6,190.4,50.9z M218.5,35.6c-0.3,0.2-0.6,0.3-0.9,0.5c-4,1.9-7.9,3.8-11.9,5.7c-0.3,0.1-0.6,0.3-0.9,0.3
			c-0.5,0-0.9-0.4-1.1-1c-0.2-0.6-0.1-1.3-0.2-2c-0.2-2.1-0.3-4.1-0.4-6.2c-0.1-2-0.3-4.1-0.5-6.1c-0.1-0.9,0.4-1.3,1.3-1.1
			c2.4,0.6,4.8,1.4,7.1,2.6c2.7,1.5,5.1,3.4,7.3,5.6c0.1,0.1,0.3,0.3,0.4,0.4C219.1,34.9,219,35.3,218.5,35.6z M164.6,58.6
			c-0.2-0.9-0.4-1.8-0.5-2.6c-0.2-1.3-0.4-2.7-0.3-3.8c-0.2-6.5,1.1-12.3,4-17.8c1.4-2.7,3.1-5.1,5.2-7.3c0.7-0.7,1.1-0.7,1.8,0
			c1.1,1.1,2.2,2.3,3.4,3.4c0.8,0.7,0.7,1.6,0,2.3c-3.2,3.6-5.4,7.8-6.3,12.5c-0.5,2.5-0.6,5-0.4,7.6c0.1,1.3,0.3,2.5,0.5,3.7
			c0.1,0.7-0.1,1.2-0.8,1.4c-1.8,0.5-3.6,1.1-5.4,1.6C165.2,59.8,164.8,59.3,164.6,58.6z M232.2,64c-1.5,3.7-3.5,7-6.1,10
			c-2.9,3.4-6.3,6.1-10.2,8.2c-3,1.6-6.2,2.8-9.5,3.5c-1.6,0.3-3.1,0.5-4.7,0.7c-0.8,0.1-1.7,0.1-2.5,0.1
			c-8.5-0.1-16.1-2.8-22.7-8.3c-4.6-3.8-7.9-8.6-10.2-14.1c-0.3-0.8-0.2-1.3,0.7-1.6c1.6-0.6,3.3-1.1,5-1.7c0.7-0.2,1.2,0,1.5,0.7
			c2.8,6.7,7.5,11.6,14.1,14.7c2.5,1.2,5.1,1.9,7.9,2.3c2.1,0.3,4.2,0.4,6.3,0.2c4.4-0.4,8.4-1.7,12.2-4.1c5-3.1,8.7-7.4,11-12.8
			c0.1-0.3,0.2-0.5,0.4-0.7c0.3-0.4,0.6-0.6,1.2-0.5c1.7,0.6,3.4,1.1,5.2,1.8C232.4,62.8,232.5,63.2,232.2,64z M234,58.5
			c-0.2,1-0.7,1.3-1.7,1c-1.6-0.4-3.1-0.9-4.7-1.3c-1-0.3-1.3-0.8-1.1-1.8c0.5-2.5,0.7-5.1,0.5-7.7c-0.4-5.8-2.4-10.9-6.2-15.3
			c-0.3-0.3-0.6-0.6-0.8-1c-0.5-0.6-0.5-1.1,0-1.7c1.3-1.4,2.6-2.7,4-4c0.4-0.4,1-0.3,1.4,0.2c1.7,1.8,3.2,3.8,4.5,5.9
			c2,3.3,3.3,6.9,4.1,10.7c0.3,1.6,0.5,3.2,0.6,4.9c0,0.8,0.1,1.6,0.1,2.4C234.8,53.4,234.4,56,234,58.5z"/>
		<path class="st0" d="M193.3,81.5c-0.2,1-0.4,1.9-0.6,2.7c0,0.2,0,0.5-0.2,0.6c-0.3,0-0.7,0-1-0.2c-0.1-0.1-0.1-0.2,0-0.3
			c0.4-1.6,0.8-3.3,1.1-4.9c0-0.1,0.1-0.3,0.3-0.3c0.3,0.1,0.8,0,1,0.5c0.4,0.9,0.8,1.9,1.2,2.8c0.1,0.1,0.1,0.3,0.3,0.4
			c0.1-0.9,0.3-1.8,0.3-2.7c0-0.7,0.5-0.4,0.8-0.4c0.5,0,0.3,0.3,0.2,0.6c-0.2,1.5-0.3,3-0.5,4.5c0,0.2,0.1,0.7-0.2,0.6
			c-0.4,0-1,0.1-1.2-0.4c-0.4-1-0.9-2-1.3-3C193.4,81.8,193.4,81.7,193.3,81.5z"/>
		<path class="st0" d="M174.5,71.4c0.3,0.1,0.3-0.1,0.5-0.2c0.6-0.5,1.2-1,1.8-1.5c0.5-0.4,0.5,0.2,0.8,0.4c0.3,0.1,0.1,0.3,0,0.5
			c-1.3,1.1-2.5,2.2-3.8,3.3c-0.2,0.2-0.3,0.2-0.5,0c-0.4-0.4-0.6-0.8-0.3-1.4c0.4-1,0.7-2,1.1-3.2c-0.9,0.6-1.7,1.2-2.5,1.7
			c-0.5,0.4-0.6-0.2-0.8-0.4c-0.3-0.2-0.1-0.4,0.1-0.6c1.3-0.8,2.5-1.7,3.8-2.6c0.2-0.1,0.4-0.5,0.6-0.2c0.3,0.3,0.6,0.6,0.4,1.1
			C175.2,69.2,174.9,70.3,174.5,71.4z"/>
		<path class="st0" d="M218.9,75.3c0.5,0.7,1.1,1.5,1.6,2.2c0.4,0.5-0.2,0.6-0.4,0.8c-0.2,0.3-0.4,0.1-0.5-0.1
			c-0.9-1.2-1.8-2.4-2.7-3.7c-0.1-0.2-0.5-0.4-0.3-0.6c0.3-0.3,0.6-0.6,1.1-0.4c0.8,0.3,1.7,0.5,2.5,0.8c0.2,0.1,0.5,0.1,0.8,0.2
			c-0.1-0.3-0.3-0.5-0.5-0.7c-0.4-0.5-0.9-1-1.4-1.5c-0.2-0.2-0.3-0.3,0-0.6c0.5-0.5,0.5-0.5,1,0c1,1.1,2,2.1,3,3.2
			c0.2,0.2,0.6,0.3,0.3,0.6c-0.3,0.3-0.5,0.8-1.1,0.6c-1-0.3-2.1-0.6-3.1-0.9C219,75.1,218.9,75.1,218.9,75.3z"/>
		<path class="st0" d="M190,78.4c-0.7-0.3-1.4-0.5-2.1-0.8c-0.3-0.1-0.4-0.1-0.6,0.2c-0.6,1.4-1.2,2.9-1.8,4.3
			c-0.2,0.4-0.1,0.6,0.3,0.7c0.4,0.2,0.6,0.1,0.8-0.3c0.1-0.3,0.2-0.6,0.4-0.9c0.3-0.8,0.3-0.8,1.1-0.4c0.2,0.1,0.3,0.3,0.3,0.5
			c0,0.4,0,0.8,0,1.3c0,0.9,0,0.9,0.9,1.1c0.3,0.1,0.4,0,0.3-0.3c-0.1-0.6-0.1-1.2-0.1-1.9c0-0.3,0-0.4,0.3-0.5
			c0.7-0.3,1.1-1,1.1-1.7C190.9,79.1,190.6,78.6,190,78.4z M189.8,79.8c-0.1,0.5-0.5,0.8-0.9,0.6c-0.2-0.1-0.5-0.2-0.7-0.3
			c-0.4-0.1-0.5-0.3-0.3-0.7c0.3-0.8,0.1-0.7,1-0.4c0.2,0.1,0.4,0.2,0.7,0.3C189.8,79.3,189.9,79.5,189.8,79.8z"/>
		<path class="st0" d="M214.4,76c-1.5,0-2.8,1.2-2.8,2.7c0,1.6,1.2,2.8,2.8,2.8c1.5,0,2.8-1.2,2.8-2.8C217.2,77.2,216,76,214.4,76z
			 M214.4,80.5c-1,0-1.8-0.8-1.8-1.8c0-1,0.8-1.8,1.9-1.8c0.9,0,1.7,0.8,1.7,1.8C216.2,79.7,215.4,80.5,214.4,80.5z"/>
		<path class="st0" d="M202.6,84.7c-0.6-1.5-1.2-3-1.8-4.4c-0.1-0.4-0.3-0.6-0.8-0.5c-0.3,0.1-0.6-0.2-0.8,0.3
			c-0.5,1.7-1.1,3.4-1.7,5c0,0.1-0.1,0.2,0,0.3c0.4,0.2,1.1,0,1.1-0.5c0.1-0.4,0.2-0.5,0.6-0.5c0.5,0,1,0,1.4,0c0.4,0,0.6,0,0.7,0.4
			c0,0.1,0.1,0.2,0.1,0.3c0.3,0.4,0.7,0.2,1,0.1C203,85.1,202.7,84.9,202.6,84.7z M200.6,83.3c-0.4,0-0.8,0.1-1.3,0.1
			c0.2-0.8,0.5-1.5,0.7-2.3c0.3,0.8,0.5,1.4,0.8,2C200.9,83.3,200.8,83.3,200.6,83.3z"/>
		<path class="st0" d="M183.1,74.9c0.1,0,0.1,0.1,0.2,0.1c0.8,0.6,1.7,1.1,2.5,1.6c0.2,0.1,0.4,0.2,0.2,0.5
			c-0.2,0.2-0.2,0.7-0.7,0.4c-0.5-0.3-1.1-0.5-1.6-0.9c-0.3-0.2-0.5-0.2-0.7,0.1c-0.4,0.7-0.6,0.5,0.2,1c0.2,0.1,0.3,0.2,0.5,0.3
			c0.5,0.2,0.4,0.5,0.2,0.8c-0.2,0.2-0.3,0.2-0.5,0.1c-0.4-0.2-0.7-0.4-1.1-0.7c-0.2-0.1-0.4-0.1-0.5,0.1c-0.7,0.9-0.7,0.9,0.3,1.5
			c0.4,0.3,0.9,0.5,1.3,0.8c0.3,0.2,0.2,0.3,0.1,0.5c-0.2,0.2-0.2,0.6-0.6,0.3c-1-0.6-2-1.2-3-1.8c-0.3-0.2-0.3-0.3-0.1-0.5
			c0.9-1.4,1.9-2.7,2.8-4.1C182.9,75,183,74.9,183.1,74.9z"/>
		<path class="st0" d="M222.3,68.6c-0.1,0-0.2,0-0.3,0.1c-0.6,0.5-0.7,0.9-0.3,1.5c0,0,0.1,0.1,0.1,0.1c0.8,1.3,1.5,2.6,2.3,3.8
			c0.1,0.1,0.1,0.4,0.3,0.3c0.5-0.2,0.7-0.8,0.4-1.2c-0.2-0.3-0.2-0.5,0-0.8c0.3-0.3,0.6-0.7,0.9-1.1c0.3-0.4,0.5-0.5,1-0.3
			c0.3,0.2,0.5,0.1,0.6-0.2c0.1-0.2,0.3-0.4,0.4-0.6C225.9,69.8,224.1,69.2,222.3,68.6z M224,71.9c-0.4-0.6-0.7-1.2-1.1-1.8
			c0-0.3,0.2-0.2,0.3-0.1c0.6,0.2,1.1,0.4,1.8,0.6C224.7,71.1,224.4,71.5,224,71.9z"/>
		<path class="st0" d="M181.9,74.1c-0.1,0.2-0.3,0.4-0.5,0.6c-0.2,0.2-0.3-0.1-0.4-0.1c-0.1-0.1-0.2-0.2-0.4-0.3
			c-0.8-0.6-0.8-0.6-1.4,0.2c-0.7,0.8-1.4,1.6-2,2.4c-0.2,0.3-0.4,0.4-0.7,0.1c0-0.1-0.1-0.1-0.2-0.1c-0.4-0.2-0.3-0.5,0-0.8
			c0.8-0.9,1.6-1.8,2.4-2.7c0.2-0.2,0.3-0.4,0-0.7c-0.2-0.2-0.4-0.4-0.6-0.6c-0.5-0.3-0.3-0.6,0-0.9c0.2-0.2,0.3-0.2,0.5,0
			c1,0.9,2,1.8,3,2.6C181.8,73.9,181.9,74,181.9,74.1z"/>
		<path class="st0" d="M206.4,84.5c0,0.1,0,0.2-0.2,0.3c-0.1,0-0.3,0-0.4,0.1c-0.5,0.2-0.7,0-0.8-0.5c-0.2-1.1-0.4-2.2-0.6-3.3
			c-0.1-0.5-0.2-0.6-0.7-0.5c-0.2,0.1-0.4,0.1-0.7,0.1c-0.5,0.1-0.7-0.1-0.7-0.7c0-0.2,0.2-0.2,0.3-0.2c1.3-0.2,2.5-0.5,3.8-0.8
			c0.5-0.1,0.5,0.2,0.6,0.5c0.1,0.4-0.1,0.4-0.4,0.5c-0.4,0.1-1,0.1-1.2,0.4c-0.2,0.3,0.1,0.8,0.2,1.3
			C206,82.5,206.2,83.5,206.4,84.5z"/>
		<path class="st0" d="M224.3,65.5c0.2,0.1,0.3,0.1,0.4,0.2c1.1,0.6,2.2,1.2,3.2,1.8c0.4,0.2,0.5,0.1,0.7-0.2
			c0.3-0.6,0.6-1.1,0.9-1.7c0.2-0.4,0.4-0.1,0.7,0c0.3,0.1,0.3,0.2,0.2,0.5c-0.5,0.9-1.1,1.9-1.6,2.8c-0.1,0.3-0.3,0.3-0.5,0.1
			c-1.4-0.8-2.9-1.6-4.3-2.4c-0.2-0.1-0.4-0.2-0.2-0.4C223.9,65.9,224,65.6,224.3,65.5z"/>
		<path class="st1" d="M211.3,83.1c0,0.1-0.1,0.2-0.2,0.2c-0.8,0.4-0.9,0.4-1.1-0.4c-0.5-1.4-1-2.8-1.5-4.2
			c-0.1-0.3-0.1-0.5,0.2-0.5c0.3,0,0.7-0.5,0.9,0.2c0.5,1.5,1,3,1.5,4.5C211.2,82.9,211.3,83,211.3,83.1z"/>
		<path class="st0" d="M174.4,65.9c0,0.2-0.2,0.2-0.3,0.3c-1.4,0.8-2.8,1.6-4.2,2.5c-0.3,0.2-0.4,0.1-0.5-0.2
			c-0.4-0.9-0.5-0.7,0.3-1.1c1.2-0.7,2.4-1.4,3.6-2.1c0.6-0.4,0.6-0.4,1,0.3C174.3,65.7,174.4,65.8,174.4,65.9z"/>
		<path class="st2" d="M218.9,75.3c-0.1,0-0.2-0.1-0.1-0.2c0.1-0.1,0.3,0,0.4,0.1C219.1,75.2,219,75.2,218.9,75.3z"/>
		<path class="st0" d="M210,21.3c0.7-0.3,0.9-1,1-1.6c0-0.9-0.4-1.4-1.1-1.6c-0.7-0.2-1.4-0.4-2.2-0.7c-0.3-0.1-0.4,0-0.5,0.3
			c-0.4,1.4-0.8,2.9-1.3,4.3c-0.2,0.6,0,0.7,0.5,0.8c0.5,0.1,0.7,0.1,0.8-0.4c0-0.2,0.1-0.4,0.2-0.6c0.2-0.7,0.2-0.7,0.9-0.5
			c0.3,0.1,0.4,0.2,0.4,0.5c0,0.4,0.1,0.8,0.1,1.2c0,0.5,0.2,0.7,0.7,0.9c0.6,0.2,0.6,0.2,0.5-0.4c-0.1-0.5-0.1-1-0.2-1.5
			C209.7,21.5,209.8,21.4,210,21.3z M209.8,19.7c-0.1,0.4-0.3,0.8-0.9,0.6c-0.3-0.1-0.6-0.2-0.9-0.3c-0.2-0.1-0.3-0.1-0.2-0.4
			c0.1-0.3,0.2-0.6,0.2-0.8c0.1-0.2,0.2-0.3,0.4-0.2c0.3,0.1,0.6,0.2,0.9,0.3C209.8,19.1,209.9,19.3,209.8,19.7z"/>
		<path class="st0" d="M186,23c-0.3-0.2-0.3-0.3-0.2-0.6c0.2-0.8-0.2-1.4-0.8-1.9c-0.5-0.5-1.1-0.5-1.7-0.2
			c-0.6,0.4-1.3,0.7-1.9,1.1c-0.3,0.2-0.3,0.3-0.2,0.6c0.7,1.2,1.4,2.5,2.1,3.8c0.4,0.7,0.4,0.7,1.1,0.3c0.4-0.2,0.4-0.4,0.2-0.7
			c-0.2-0.2-0.3-0.4-0.4-0.7c-0.4-0.6-0.4-0.6,0.2-1c0.3-0.1,0.4-0.2,0.7,0c0.3,0.3,0.6,0.4,0.9,0.7c0.4,0.4,0.8,0.4,1.2,0.1
			c0.1-0.1,0.2-0.1,0.5-0.2C187,23.7,186.5,23.3,186,23z M183.3,23c-0.1,0-0.7-0.9-0.8-1.1c0-0.2,1.1-0.8,1.4-0.8
			c0.3,0,0.7,0.4,0.7,0.9C184.6,22.3,183.8,23,183.3,23z"/>
		<path class="st0" d="M190.2,17.6c-1.5,0-2.7,1.2-2.7,2.8c0,1.5,1.2,2.8,2.7,2.8c1.6,0,2.9-1.2,2.9-2.9
			C193.1,18.8,191.8,17.6,190.2,17.6z M190.3,22.1c-1,0-1.8-0.8-1.8-1.8c0-1,0.8-1.8,1.8-1.8c1,0,1.8,0.8,1.8,1.8
			C192.1,21.3,191.3,22.1,190.3,22.1z"/>
		<path class="st0" d="M204.4,21.8c-0.4-1.5-0.8-3.1-1.2-4.6c-0.2-0.6-0.7-1-1.3-0.8c-0.1,0-0.2,0.1-0.2,0.2c-0.8,1.7-1.6,3.3-2.4,5
			c-0.1,0.1-0.1,0.2,0.1,0.3c0.5,0.2,1,0,1.2-0.5c0.2-0.3,0.4-0.5,0.8-0.5c0.5,0.1,1,0.1,1.5,0.1c0.2,0,0.4,0.1,0.4,0.3
			c0.1,0.9,0.7,0.9,1.4,0.9C204.5,22.1,204.5,21.9,204.4,21.8z M202.6,20.1c0,0-0.1,0-0.1,0c-1.4-0.1-1.4-0.1-0.8-1.3
			c0.1-0.3,0.3-0.6,0.5-0.9c0,0,0.1,0,0.1,0c0.2,0.6,0.3,1.3,0.5,1.9C202.9,20.1,202.8,20.1,202.6,20.1z"/>
		<path class="st0" d="M198.6,16.7c0.1,0.4,0,0.6-0.4,0.6c-0.4,0-1.1-0.2-1.3,0.2c-0.2,0.3,0,0.9,0.1,1.3c0.1,0.9,0.2,1.7,0.3,2.6
			c0.1,0.4,0,0.6-0.5,0.6c-0.3,0-0.7,0.2-0.8-0.4c-0.1-1.2-0.3-2.4-0.4-3.7c0-0.3-0.1-0.5-0.5-0.4c-0.3,0.1-0.6,0.1-0.8,0.1
			c-0.5,0.1-0.6-0.1-0.6-0.5c0-0.3,0.1-0.4,0.3-0.4c1.4-0.2,2.8-0.3,4.2-0.4C198.8,16.2,198.5,16.6,198.6,16.7z"/>
		<path class="st0" d="M212.7,19.1c0.8,0.2,1.4,0.5,1.4,1.4c0,0.5,0,1.2,0.3,1.4c0.3,0.2,0.9-0.3,1.3-0.5c0.7-0.4,1.3-0.3,1.8,0.3
			c-0.9,0.4-1.8,0.9-2.7,1.3c-0.4,0.2-0.6,0.4-0.8,0.7c-0.2,0.5-0.5,1-0.8,1.6c-0.1,0.2-0.2,0.3-0.5,0.1c-0.1-0.1-0.3-0.2-0.5-0.3
			c-0.2-0.1-0.2-0.2-0.1-0.4c0.2-0.4,0.3-0.7,0.6-1.1c0.5-0.7,0.5-1.3,0.3-2.1C213,20.7,212.9,19.9,212.7,19.1z"/>
		<path class="st0" d="M199.2,42.9c-4.5,0-8.1,3.7-8,8.1c0,4.4,3.8,8,8.2,7.9c4.6-0.1,7.8-3.9,7.8-8
			C207.2,46.4,203.6,42.8,199.2,42.9z M198.7,56.2c-2.1-0.3-3.6-1.4-4.3-3.4c-0.8-2-0.4-3.9,1-5.5c0.5-0.6,1.2-1.1,2-1.3
			c0.3-0.1,0.4-0.3,0.4-0.6c0.1-1,0.1-1,1.1-1c0.1,0,0.2,0,0.3,0c0.1,0,0.2,0,0.3,0c1,0,1,0,1.1,1c0,0.4,0.3,0.4,0.5,0.5
			c2,0.8,3.2,2.2,3.5,4.3C205,53.7,202.1,56.6,198.7,56.2z"/>
		<path class="st3" d="M223.3,70c-0.1,0-0.3,0-0.3,0.1c-0.1-0.1-0.2-0.2-0.1-0.2C223,69.8,223.1,69.9,223.3,70z"/>
	</g>
	<text transform="matrix(1 0 0 1 8.666 55.0967)" class="st4 st5 st6">Rotary</text>
	<text transform="matrix(1 0 0 1 8.666 78.2822)" class="st4 st5 st7">Club Abidjan Bietry</text>
</g>
</svg>
